<svg xmlns="http://www.w3.org/2000/svg" viewBox="0 0 308.59 47.45"><defs><style>.cls-1{fill:#21110d;fill-rule:evenodd;}</style></defs><title>header_logo</title><g id="レイヤー_2" data-name="レイヤー 2"><g id="デザイン"><path class="cls-1" d="M61.33,18.88c0-.05-.13-.19-.15-.25l.05-.1-.1-.1v-.15a4.55,4.55,0,0,0-.36-.46c-.08-.13-.07-.28-.15-.41s-.22-.24-.31-.36v-.1l-.15-.05L60,16.44,59.55,16v-.1l-.46-.41c-.06-.08-.07-.19-.15-.25l-.15-.05-.2-.25h-.15l-.31-.41c-.07-.05-.15,0-.2-.1l-.05-.15s-.22-.07-.25-.1v-.1c-.08-.09-.2-.08-.31-.15l-.2-.25H57c-.14-.08-.23-.31-.36-.41l-.31-.1c-.13-.08-.26-.23-.41-.31l-.2-.05v-.1c-.13-.11-.32-.11-.46-.2l-.1-.15s-.11.07-.2,0v-.1c-.14-.11-.35-.11-.51-.2a11.3,11.3,0,0,0-1.12-.66c-.16-.07-.25,0-.41-.1s-.22-.16-.31-.2h-.15l-.05-.1h-.15l-.1-.15H52c-.22-.1-.27-.17-.51-.15a2.79,2.79,0,0,0-.25-.15h-.25c-.21-.08-.46-.27-.66-.36l-.46-.05c-.1,0-.17-.16-.25-.2l-.36-.05c-.18-.06-.43-.19-.61-.25-.39-.15-1.08-.17-1.37-.41,0-.13.38-.34.51-.51s.07-.21.1-.25L48,8.4V8.15l.1-.05a4.93,4.93,0,0,0,.1-.56,1.56,1.56,0,0,0-.25-1,1.92,1.92,0,0,0-2.29-1.07H45.3c-.06,0-.16.13-.2.15s-.34.1-.51.2-.52.36-.76.51-.22,0-.36.1-.22.16-.31.2-.25,0-.36.1v.1l-.15-.05c-.09,0-.26.16-.36.2L42,7a2.64,2.64,0,0,1-1.37.31,2.17,2.17,0,0,0-.61.1,2.94,2.94,0,0,1-1.68-.31,2.68,2.68,0,0,1-1.12-1.68c0-.13.06-.25.05-.31l-.1-.25.05-1.48a4.72,4.72,0,0,0,0-2.49c-.1-.33-.38-.36-.66-.51a3.62,3.62,0,0,0-.41-.25,2.87,2.87,0,0,0-1.27.1L34.62.21l-.51.05-.81-.2a2.42,2.42,0,0,0-1.53.15c-.41.34-.45.68-.61,1.27V3.21l-.1.05a5,5,0,0,0-.05.66c0,.07.11.36.05.51A3.5,3.5,0,0,1,29,6.77a5.46,5.46,0,0,1-2.54-.15c-.09,0-.22-.17-.31-.2a4.08,4.08,0,0,1-.56-.2c-1.37-.85-2.25-2.07-4-2.54a2.16,2.16,0,0,0-1.73.61c-.12.17,0,.25-.15.41a1.22,1.22,0,0,0-.31,1.12c0,.09.17.28.2.36s0,.18,0,.31a4.72,4.72,0,0,0,1.22,1.48c-.24.21-.53,0-.81.1s-.55.24-.81.31S19,8.3,18.9,8.3l-.2.1h-.31l-.92.25h-.25c-.25.08-.6.2-.86.25l-.2-.05a2.7,2.7,0,0,0-.36.2h-.2c-.46.16-.93.25-1.42.41-.32.1-.82.3-1.22.46-.22.08-.4.06-.61.15s-.56.33-.66.36-.09-.09-.2-.05-.16.14-.2.15l-.15-.05a4.07,4.07,0,0,0-.46.2,2.76,2.76,0,0,1-.25.2,5.55,5.55,0,0,0-.81.31v.1H9.43c-.09,0-.22.17-.31.2h-.2c-.2.08-.42.26-.61.36s-.41.13-.61.25l-.05.1c-.13.08-.27.07-.41.15l-.05.1-.25.05-.1.15-.2.05-.1.15H6.38c-.06,0-.14.17-.2.2s-.24.07-.36.15l-.15.2c-.05,0-.21.06-.25.1v.1h-.1l-.05.1c-.17.11-.34.09-.51.2l-.05.15H4.6l-.15.2h-.1l-.15.2h-.1l-.2.25-.1-.05v.1c-.09.1-.19.12-.31.2l-.15.2-.2.05a1.82,1.82,0,0,0-.25.25c-.06.09,0,.17-.1.25l-.15.1V16c-.23.32-.66.52-.86.86V17l-.1.05c-.06.09,0,.16-.1.25l-.15.1-.05.25c-.12.2-.33.41-.46.61s-.17.61-.31.81H.48s-.15.39-.15.41.06.14.05.2-.13.29-.15.36l-.1.76s.09.11.05.2l-.1.05s-.05.2-.05.2a4.61,4.61,0,0,0,.15,1.37V23c.08.28.1.62.2.92A10.81,10.81,0,0,0,1,25.34c.08.15.09.34.2.46l.15.05.05.25.1.05c.08.12.07.24.15.36s.18.08.2.1.07.21.1.25l.36.25v.1l.25.15.05.15c.07.05.15,0,.2.1s0,.15.1.2.22.05.31.1l.1.15.2.05c.12.07.24.23.36.31l.2.05c.06,0,.14.16.2.2l.31.1a20.8,20.8,0,0,0,5,1.93l.66.05s.16.14.2.15l.56.05c.57.17,1.35.25,1.93.41l.76.05c.49.13,1.13.13,1.63.25.16,0,.37-.06.46-.05v.05h.36a3.37,3.37,0,0,0,.36.15c.05,0,.1-.05.2-.05a4.72,4.72,0,0,1,.76.1l1.37.05c.87.22,2.07,0,3,.2.44.11,1,0,1.42.05s2-.16,2.24.05h2v.05c-.05,0-.59.43-.61.46s-.13.27-.25.36l-.2.05-.05.15c-.14.15-.45.28-.56.46s0,.23-.1.31l-.15.05v.15a.94.94,0,0,1-.2.1v.15l-.15.1-.05.15h-.1s-.12.26-.15.31l-.15.1v.1c0,.06-.16.14-.2.2v.1c0,.06-.16.14-.2.2l-.05.2c0,.06-.16.14-.2.2s-.07.24-.15.36l-.15.1c-.1.15-.09.36-.2.51h-.1s.05.12,0,.2l-.1.05c-.1.17-.11.34-.2.51s-.28.42-.36.61l-.05.31-.15.1-.15.46c-.1.23-.31.48-.41.71l-.1.51s-.14.11-.15.15l.05.15c0,.08-.17.17-.2.25l-.36,1.07h-.1l-.05.31c-.13.32-.19.56-.31.92v.25a19.51,19.51,0,0,0-.76,3.15,1.36,1.36,0,0,1,.31.36,14.75,14.75,0,0,0,1.88.15c.35,0,.75-.1,1-.05.68.14,1.53-.11,2.14.05.4.1.79-.15,1.12-.1.59.09,1.37,0,2,.05a2.71,2.71,0,0,0,.56.05l.66-.1a12.82,12.82,0,0,0,3.15,0c.1,0,.21,0,.36.05a9.39,9.39,0,0,1,1.88.05,2.63,2.63,0,0,0,1-.1c.12,0,.41.05.61.05l2.19.05a3.51,3.51,0,0,1,.51-.1,6.26,6.26,0,0,0,1.83-.05c.12,0,.2.06.25.05a2.57,2.57,0,0,0,1.53-1.17V44.52c0-.24-.08-.84-.05-1a3.63,3.63,0,0,0,0-1.53,2.05,2.05,0,0,0-1-1A4,4,0,0,0,41,40.81H40c-.1-.06,0-.21-.1-.31h-.1c-.07-.1,0-.22-.05-.36s-.37-.62-.46-.92,0-.84-.05-1.12l.1-1.07a8.47,8.47,0,0,1-.05-1.68v-.51a3.12,3.12,0,0,1,.05-.92.28.28,0,0,0-.05-.15V32.16a4.72,4.72,0,0,0,1-.05c.36-.09.87,0,1.17-.05H42a5.56,5.56,0,0,0,1.22-.1l2-.1v-.1l.56.05c.42-.1,1.29-.11,1.83-.25H48c.56-.16,1.32-.2,1.88-.36h.36a9.59,9.59,0,0,1,1-.25c.06,0,.13.08.25.05a28.08,28.08,0,0,0,3.36-1.07l.31-.05c.15-.06.35-.19.51-.25h.2v-.1l.25-.05c.09,0,.22-.16.31-.2s.24,0,.36-.1.21-.2.31-.25l.31-.1.05-.1.2-.05c.06,0,.14-.16.2-.2H58l.2-.25h.15l.2-.25c.1-.07.32-.12.41-.2v-.1a4,4,0,0,1,.31-.31l.25-.1v-.15l.51-.41v-.1l.15-.1.1-.31.31-.25.05-.2.1-.05.1-.31.1-.05.05-.2h.1v-.15a7.08,7.08,0,0,0,.31-.71l.05-.41a7.05,7.05,0,0,0-.1-4.68ZM35.58,44.63c-.36.26-.2.61-.36,1a3.3,3.3,0,0,1-.31.46,5.91,5.91,0,0,1-1.78-.05c-.42-.12-.7-1.32-.41-1.63.06-.17.12-.09.2-.2L33,44s.08,0,.15-.1c.24,0,.42-.15.61-.15s.31.07.46-.05a6,6,0,0,1,1.68.2c.16.05.15.11.25.2C36.11,44.69,35.88,44.41,35.58,44.63Zm1.85.38c0,.17,0,.32,0,.47s0,.26,0,.42a1.15,1.15,0,0,1-.56-.36s-.1-.09-.11-.09a1,1,0,0,0,.29-.37,1.57,1.57,0,0,0-.23-1.47c.07-.17.2-.13.33-.25s.11-.06.28-.06a.52.52,0,0,1,0,.31c0,.23.07.52.08.75S37.44,44.79,37.44,45Zm.13-2.88a1.89,1.89,0,0,0-1.27.61,4.32,4.32,0,0,1-1-.15h-.66a.44.44,0,0,0-.25-.05,4.37,4.37,0,0,1-1.42.1,3.61,3.61,0,0,0-1.32-.05,2.86,2.86,0,0,1-.41,0,12.36,12.36,0,0,1-3.15,0,5.33,5.33,0,0,0-.86.1h-.71a.51.51,0,0,0-.2.76.36.36,0,0,0,.25.2c.15.11.44,0,.66.05a2.76,2.76,0,0,0,.71,0,6,6,0,0,1,.61.05c.33,0,.86-.05,1.27-.05s1,.11,1.12,0a2.83,2.83,0,0,1,.81.05c-.12.51-.51,1.69,0,2.24v.1c-.76,0-1.57,0-2.39,0a9.61,9.61,0,0,1-1.37,0l-1.22.05a12.25,12.25,0,0,0-2.85,0c-.43.11-1.91-.24-2.24,0h-.1a6.46,6.46,0,0,1,.51-1.83V44c.16-.51.36-1.06.56-1.53l.05-.31h.1V42l.1-.1-.05-.15c0-.12.18-.28.2-.46,0,0-.09,0-.05-.05h.1c.12-.17.11-.47.2-.66l.1-.05V40.3h.1l.2-.56c.05-.08.2-.18.25-.25v-.15c.08-.16.24-.35.31-.51v-.2c0-.09.16-.22.2-.31l.1-.31.1-.05.1-.31.1-.05.1-.31.1-.05V37l.15-.05v-.1l.1-.05.05-.2c.41-.65.92-1.26,1.37-1.88a7.45,7.45,0,0,1,.76-.71,1.58,1.58,0,0,0,.1-.2h.15l.25-.36h.15s.08-.19.1-.2l.2-.05.15-.2c.17-.12.39-.14.51-.31h.05a7.41,7.41,0,0,1-.36.92l-.05.41c0,.07-.13.23-.15.31s0,.36-.1.51h-.1c-.15.23-.09.57-.25.76v.05a3.14,3.14,0,0,0,.81-.41v-.1l.15.05s.17-.13.2-.15c.34-.18.69-.26,1-.46l.05-.1h.15a2.17,2.17,0,0,0,.46-.31h.05A15,15,0,0,1,30,37c-.1.15,0,.19,0,.31l-.1.1c-.16.38-.16.87-.41,1.17a1.33,1.33,0,0,0,.2.61l.15.05v.15c.05.09.2.17.25.25s.06.21.1.25h.1V40l.1.05c.06.1,0,.25.1.36.16.28.46.46.56.81h.1c.12-.25.33-.44.46-.66s0-.21.1-.36l.15-.05.05-.2c.06-.08.2-.17.25-.25a4.54,4.54,0,0,1,.61-1c-.06-.48-.39-.81-.51-1.22l.05-.15s-.08-.34-.1-.41c-.18-.5-.45-1.13-.66-1.63-.14-.34-.14-.76-.36-1V34.2c.11.05.21.16.31.2a5.06,5.06,0,0,1,.56.2l.05.1c.12.06.26,0,.36.1v.1l.36.1.05.15a3.72,3.72,0,0,1,1.07.46h.1a8.53,8.53,0,0,0-.61-1.73c-.11-.28-.12-.62-.31-.81V33a7.37,7.37,0,0,1,.86.51c.25.2.47.58.71.81a3.28,3.28,0,0,1,.51.46l-.05.1h.05c0,.05.13.11.15.15s0,.23.1.31.32.18.41.31l-.05.1.1.05v.1c.09.13.26.27.36.41v.1l.1.05.05.2.1.05c.08.12.07.23.15.36l.1.05.05.2H37l.25.41v.2c.15.37.47.77.66,1.12,0,.09.05.28.1.36s.21.19.25.31l-.05.1a4.13,4.13,0,0,0,.31.56c.1.25.07.46.25.61-.11.16-.28.16-.46.25A1.28,1.28,0,0,0,37.57,42.13Zm-7.33-9.82a5,5,0,0,1,1.37-.05,2.69,2.69,0,0,0,.41.1A5.69,5.69,0,0,1,31.16,34v.05h-.05a2.35,2.35,0,0,0-.15-.51h-.1l-.1-.31a2.59,2.59,0,0,1-.2-.25l.05-.1C30.46,32.73,30.27,32.62,30.24,32.31Zm7.84,4.12v.36H38v-.05a6,6,0,0,1-.56-.76l-.15-.46-.2-.15v-.1c0-.06-.16-.14-.2-.2V35c-.07-.1-.23-.2-.31-.31v-.1l-.15-.1-.05-.2-.15-.1V34h-.1l-.05-.2-.2-.1a5.09,5.09,0,0,0-1-1,5,5,0,0,0-.46-.41v-.05l3.66-.05c0,1,0,2,0,3.1A4.16,4.16,0,0,1,38.08,36.43Zm4,9v.41l-.51.31h-.17s-.08.07-.08.1c-.24.13-.48-.07-.76,0-.69.17-1.88-.11-1.93-.36s0-.23,0-.52c0-.1-.08-.52-.08-.62s0-.4,0-.52,0-.37,0-.63a5.94,5.94,0,0,0,2.7.2c.31-.07.54.05.76-.2H42c0,.07,0,.46,0,.84,0,.1,0,.39,0,.47C42,45.22,42,45.39,42,45.43ZM39.5,41.88c.18-.05.39,0,.51-.05a3.63,3.63,0,0,1,2,.46c-.09.52-1.12.51-1.73.56a1.47,1.47,0,0,1-.56.05c-.08,0-.25-.13-.31-.15-.33-.11-.69-.06-.81-.36-.05-.06,0,0-.05-.1A4.43,4.43,0,0,1,39.5,41.88Zm21-19.18-.1.05V23a3,3,0,0,0-.15.41c0,.07.08.08.05.2s-.23.51-.31.71v.2c0,.11-.18.17-.25.25l.05.1h-.1l.05.1h-.1v.1c-.08.12-.22.24-.31.36v.1L59,25.7v.1l-.15.1c-.06.09,0,.17-.1.25a5.36,5.36,0,0,1-1.07.86l-.1.15h-.1l-.1.15c-.12.08-.24.07-.36.15s-.24.23-.36.31-.27.08-.41.15-.42.27-.61.36l-.51.1c-.22.09-.47.31-.71.41l-.46.1c-.5.2-1.16.36-1.68.56l-3,.61a5.27,5.27,0,0,1-.71.1c-.1,0-.15-.06-.2-.05s-.32.13-.41.15h-.41c-.41.11-1,.11-1.27.2l-.76.05s-.15-.09-.25-.05l-.05.1-1.12.05c-.65.19-1.65.07-2.39.25a.69.69,0,0,1-.36-.05,1.82,1.82,0,0,0-.71.05c-.38.1-1.11-.15-1.32,0h-.1A27.29,27.29,0,0,0,39.25,28a12.79,12.79,0,0,0,0-3,1.45,1.45,0,0,1,.15-.81l-.05-.66a8.92,8.92,0,0,0-.05-1.83,2.06,2.06,0,0,1,.1-.76.31.31,0,0,0-.05-.2c-.11-.46,0-1-.1-1.37L39.2,19h-.1l-.05-.2c-.4-.59-.86-.68-1.83-.66a2.7,2.7,0,0,0-1.42-1.53,4.18,4.18,0,0,0-.56-.1,2.59,2.59,0,0,0-.81-.1,5.19,5.19,0,0,0-1.37.81c-.1.14-.17.32-.25.46v.1h-.1v.1a1.73,1.73,0,0,0-.25.51,1.66,1.66,0,0,0,.15.81c0,.12-.06.14-.05.2A3.07,3.07,0,0,0,33.75,21c.14.11.4,0,.61.1a3,3,0,0,0,1,.1,2.94,2.94,0,0,0,1.93-1.78h.61c.15.07.07.21.15.36a14.46,14.46,0,0,1,.05,2.65c0,2.79,0,5.74,0,8.55-1.12,0-2.12.1-3.15.05a11.59,11.59,0,0,1-1.78,0,1.46,1.46,0,0,0-.56.1,2.21,2.21,0,0,1-1-.1c-.57-.15-1.18.11-1.68,0l-.71.1a6.64,6.64,0,0,1-1.53-.1c-.29-.07-.73,0-1-.05-.44-.11-.86.24-1.37.1-1.26-.34-2.64.1-3.82-.2l-.51.05-.86-.15a.19.19,0,0,0-.15.05l-.61-.05a1.34,1.34,0,0,1-.61.05l-.05-.1c-.39-.15-.89.13-1.22,0l-.05-.1-1.12-.05v-.1c-.27-.14-.71.07-1,0l-.41-.1h-.41v-.1h-.41v-.05c-.12,0-.13,0-.2.05a1.88,1.88,0,0,1-.51-.1H13c-.25-.07-.62-.15-.86-.2l-.31.05c-.19,0-.56-.21-.76-.25s-.29.07-.51,0c-1-.31-2.21-.62-3.15-1-.2-.09-.41-.06-.61-.15l-.05-.1h-.2c-.11,0-.19-.21-.31-.25h-.2L6,28.09a5.38,5.38,0,0,0-.56-.2A3.79,3.79,0,0,1,5,27.53c-.08,0-.1.06-.2,0s-.37-.4-.56-.56c-.18.07-.31-.2-.46-.31a5.27,5.27,0,0,1-1.22-1.32l-.15-.1L2.31,25,2.21,25l-.1-.31a3.56,3.56,0,0,1-.31-.51l-.05-.41h-.1v-.2s-.14-.12-.15-.15V23a5.19,5.19,0,0,1-.1-2l.1-1c0-.12.2-.3.25-.41v-.15c.09-.2.26-.43.36-.61l.1-.31c.07-.1.24-.2.31-.31V18l.2-.15c.09-.14.07-.26.15-.41l.2-.15v-.1l.15-.05.36-.46.2-.1v-.1l.36-.31v-.1s.21-.07.25-.1l.31-.36c.21-.15.4-.25.61-.41l.15-.2s.26-.07.31-.1l.05-.15c.14.13.41-.28.51-.36h.1c.11-.08.24-.23.36-.31L7,14c.26-.17.55-.39.81-.56a4.36,4.36,0,0,0,.51-.25v-.1L8.87,13c.18-.09.39-.27.56-.36s.47-.13.71-.25c.09,0,.22-.16.31-.2s.39-.06.56-.15c.37-.19.82-.41,1.22-.56a1,1,0,0,0,.56-.1s.12-.14.15-.15h.2s.15-.13.2-.15c.21-.09.41-.05.61-.15a3.1,3.1,0,0,1,.51-.25c.09,0,.08,0,.1.05s.22-.09.25-.1l.15.05c.21-.06.49-.23.71-.31l.41-.05a2.71,2.71,0,0,1,.56-.2c.07,0,.08.09.2.05s.17-.14.2-.15l.51-.05c.17-.05.46-.21.61-.25s.2.06.25.05c.43-.08,1-.23,1.48-.36l1.58-.2c.13,0,1.21-.27,1.27-.25s.16.13.2.15h.15c.07,0,.23.13.31.15l2.19.51.61.05c.72.21,1.59.18,2.24.36l.86.05a6.06,6.06,0,0,0,1,.2,1.55,1.55,0,0,1,.51-.05,4.3,4.3,0,0,0,.66.15,6.34,6.34,0,0,1,1.48.05,2.76,2.76,0,0,0,.86-.05c.05,0,.52.13.61.15l.86-.05a5.12,5.12,0,0,0,1.42.05,1.56,1.56,0,0,1,.61-.05,4.68,4.68,0,0,0,1.32,0,7.82,7.82,0,0,0,1.53,0l.15-.1.76.1c.46-.12,1.14-.14,1.63-.25l.41.05,1-.25h.41a2.2,2.2,0,0,1,.56-.15,6,6,0,0,1,.61.2H46s.16.13.2.15l1,.15c.11,0,.32.17.41.2l.46.05.15.1c.1,0,.19-.06.36,0,.36.13.81.36,1.17.51l.51.1c.05,0,.15.13.2.15h.15c.09,0,.26.16.36.2h.15l.1.1.31.05.05.1.15-.05.76.46h.15c.23.1.48.3.71.41l.25.05c.08,0,.18.21.25.25l.36.05v.1l.31.1c.16.09.3.26.46.36s.25,0,.36.1.15.21.2.25h.1c.12.08.24.23.36.31H56c.15.1.3.31.46.41l.2.05c.13.1.22.31.36.41a7.15,7.15,0,0,1,1.58,1.58c.1.14.3.26.41.41s.07.24.15.36.28.29.36.41l.1.31.15.05.1.46a5.37,5.37,0,0,1,.36.76c0,.09,0,.08-.05.1a3.16,3.16,0,0,0,.1.41,4.32,4.32,0,0,1,.2.41c.05.17,0,.49.05.61ZM36,18.63l-.05.66c-.27.22-.63.8-1.27.61-.23-.07,0-.07-.25-.05-.06-.07-.12,0-.2-.1s-.18-.38-.41-.46c0-.26-.18-.52,0-.71,0-.43.34-.53.56-.76.11,0,.1,0,.15-.05a1.55,1.55,0,0,1,1.27.46C35.89,18.36,35.86,18.52,36,18.63Zm-4.22,3.15a2.53,2.53,0,0,1-.61.15,3.27,3.27,0,0,1-.51-.25,3.28,3.28,0,0,1-.05-1.73c.05-.15.16-.38.2-.56L30.75,19a1.33,1.33,0,0,0,.05-.56,4.43,4.43,0,0,0-.05-.51s-.14-.16-.15-.2v-.25l-.1-.1v-.2a3.59,3.59,0,0,0-.36-.46c-.86-1.31-2-1.82-4.27-1.78-.12.09-.33,0-.51.05a10.34,10.34,0,0,0-2,.41c-.17.05-.19.16-.31.25s0,.19.05.25c0,.23.07.22.15.36a8.41,8.41,0,0,0,2-.31h.61a1.87,1.87,0,0,1,.81,0l.86.05a2.35,2.35,0,0,0,.36.15l.15-.05c.08,0,.18.16.25.2a2.63,2.63,0,0,1,1.53,1.93,2,2,0,0,1-.1,1c-.07.24,0,.39,0,.56s-.16.58-.2.81,0,.13.05.2c0,.31-.31.72-.05,1-.1.28-.5.34-.66.56s0,.17-.1.25-.23.19-.31.31l-.05.2-.25.15v.15l-.36.25c-.05.07,0,.15-.1.2h-.1c-.09.07-.11.24-.2.31s-.37.14-.56.25-.62.35-.92.51l-.1-.05c-.34.17-.69.47-1,.66,0,.12,0,.14.05.2.14.46,1.4.75,2,.61h.41l.1-.1.41-.05s.16-.14.2-.15.27,0,.41,0A4.6,4.6,0,0,0,29,25.8l.31-.05s.11-.13.15-.15.27-.07.41-.15.21-.2.31-.25l.31-.1.2-.25c.15-.11.3-.16.41-.31a2.48,2.48,0,0,1,.71.46h.1l.05.15.2.05.2.25c.07,0,.25.06.31.1v.1h.1l.1.15a5.28,5.28,0,0,0,.86.36c.12.05.28.21.41.25a5.21,5.21,0,0,0,1.73.1,1.21,1.21,0,0,1,.36-.1.08.08,0,0,0,.1.05c.12,0,.23-.16.31-.2s.36-.1.51-.2l.25-.36a.48.48,0,0,0-.05-.31c-.14-.44-1.77-.64-2.14-.86,0,0-.28-.17-.31-.2v-.1c-.09-.08-.3-.13-.41-.2l-.2-.25-.2-.05s-.06-.17-.1-.2-.38-.19-.46-.31-.1-.35-.2-.51-.23-.16-.31-.25l-.05-.2-.15-.05-.1-.15A1.22,1.22,0,0,0,31.77,21.78ZM25.31,20.2a1.57,1.57,0,0,0,.86-.05,1.87,1.87,0,0,0,.61-2.29l-.1-.05c-.34-.54-.37-.49-1-.71l-.61.2a2,2,0,0,0-.61,1.83c0,.16.13.26.1.41.18.11.24.36.41.46S25.2,20.05,25.31,20.2ZM145.54,34.05a4.16,4.16,0,0,0-2.28-.38,13,13,0,0,0-2.47.57l-.19.09v.19h-.28c-.09,0-.29.25-.38.28h-.38a12.23,12.23,0,0,0-1.52,1,10.67,10.67,0,0,0-1.23.57c-.24,0-.35,0-.47-.09-.27-.34-.19-1.12-.19-1.71a18.83,18.83,0,0,1,.19-4.08c.17-.72-.3-1.83,0-2.37.07-.37.22-.34.38-.57.63-.89,1.28-.64,2.37-.47a.19.19,0,0,0,.19-.09l.85.19c.45.19.92.87,1.71.66a2.75,2.75,0,0,0,1.42-.95c.21-.31.23-.68.47-.95a3.31,3.31,0,0,0-.57-1.9V23.8H143l-.38-.57h-.19l-.57-.66-.19.09-.09-.19a8.74,8.74,0,0,0-1-.38,5.77,5.77,0,0,0-2.37-.66,5.58,5.58,0,0,1-.57.28c0,.22,0,.27-.09.38.2.69.91.86,1.42,1.23s.58.93.95,1.33a1.23,1.23,0,0,1-.19.76c-2.81.54-4.92.6-5.79,3.42v.76a6.09,6.09,0,0,0-.28,2.09l.09,1.14a7,7,0,0,0-.19,1.33,4.55,4.55,0,0,1,.19,1.33c-.6,2.3.43,4.31,2.85,4.27.32-.35.91-.42,1.23-.76.11-.11,0-.23.09-.38l.57-.47v-.28l.85-.47.47-.57a6.44,6.44,0,0,1,1.8-1c1.49-.52,3.67-.29,4,1.14a3.52,3.52,0,0,1,.09,2.09h-.19l-.09.19v.28a7.15,7.15,0,0,1-3.8,2.85l-1,.09v.19l-.19.09c-.66.27-1.77,0-2.28.38a.6.6,0,0,0-.19.95c.41.56,3.49.39,4.46.09a14.09,14.09,0,0,0,3.23-1.23c.28-.16.63-.17.85-.38v-.19l.28-.09.19-.38c.16.09.89-.54,1-.76s.23-.68.38-.95l.28-.19a5.51,5.51,0,0,0,.28-2.56A5,5,0,0,0,145.54,34.05ZM91.8,30.16a6.76,6.76,0,0,0-.38-1l-.57-.47a4.7,4.7,0,0,0-.95-1.14l-.57-.19v-.19a5.56,5.56,0,0,0-.85-.28H87.9c-.09,0-.29-.25-.38-.28a11.16,11.16,0,0,0-3.23,0l-.09.19c-.36.12-.23-.24-.57,0h-.28c.09-.29.29-.49.38-.76v-.47h.19c.25-.49-.26-1.21-.38-1.42a3.72,3.72,0,0,0-3.23-2c-.07.1-.12,0-.19.09s.1.23-.28.38a2.58,2.58,0,0,0,.76,1.52,1.67,1.67,0,0,1-.19.95c-2.79,0-6.32-2-8.45-.57a2.83,2.83,0,0,0-.76,1c-.09.26,0,.5-.09.66.07.75.62,1.14.95,1.61V28c.15.22.42.45.57.66v.19l.28.09v.19a4.91,4.91,0,0,1,.66.95c.07.19,0,.44.09.57a23.79,23.79,0,0,1-2.75.95c-1.16.32-1.59-1-2.28-.57-.55.22-.72,1.17-.57,1.8v.57a2.51,2.51,0,0,0,1.52,1.42,2.89,2.89,0,0,0,1.71,0c1.35-.45,2.18-1.56,3.61-1.9.45,1,.85,2,1.23,3,.14.37.2,1.22.38,1.52h.19a2.18,2.18,0,0,1,.19.76c0,.06-.14,0-.09.19s.3.62.38.85v.47h.19c.07.12-.05.07-.09.09a3.77,3.77,0,0,0,.28.95v.47c.12.41.26,1.08.38,1.52v.76a4.4,4.4,0,0,1,.28.95c.31.17.4.5.66.66s.19,0,.28.09c.94,0,1.7-.24,1.9-.95.55-.72.05-2.85-.19-3.61,0-.12,0-.4-.09-.57h-.19l-.19-.85-.19-.19c-.25-.6-.31-1.22-.57-1.8,0-.08-.26-.22-.28-.28v-.38c-.14-.39-.4-1-.57-1.33V35H78.6l-.19-.38v-.28c-.07-.17-.31-.4-.38-.57l-.09-.47c-.11-.18-.37-.37-.47-.57s-.13-.56-.28-.76c.2-.66,1.62-.95,2.18-1.33l.38-.47,1.71-.57a16.6,16.6,0,0,1,2.94-1.14.58.58,0,0,1,.38.09,8.58,8.58,0,0,0,1.61,0c.38,0,.53.24.85.19.22.34.63.45.85.76a5.13,5.13,0,0,1,.66,2c.12.64-.43,1.1-.66,1.42v.19a3.83,3.83,0,0,1-1.42.95l-.85.09a1.39,1.39,0,0,1-.95.19L83.73,34l-.66-.09c-.22-.09-.38-.37-.57-.47-.52-.29-1-.35-1.42-.76-.49,0-.46.19-.76.38,0,1.07.61,1.17,1.14,1.71.05.05.17.39.28.47a9.93,9.93,0,0,0,3.32,1.33l1.14-.09a4.44,4.44,0,0,0,2.18-.19,8,8,0,0,0,1.52-.76l.19-.28a4.32,4.32,0,0,0,1-.85v-.28a3.92,3.92,0,0,0,.57-3.32ZM81.07,27.69a10.57,10.57,0,0,0-2.09,1,6.46,6.46,0,0,0-2.66,1c-.58-.12-.63-.84-.85-1.33-.09-.2-.36-.39-.47-.57-.32-.51-.38-1.17-.76-1.61a1.41,1.41,0,0,1,.19-.66,8.91,8.91,0,0,1,3.13.57h.38a14.47,14.47,0,0,1,1.61.57c.53.25.82.72,1.52.85Zm41.68,7.6a1,1,0,0,1,.09-.47,4.13,4.13,0,0,0-.19-.95,6.61,6.61,0,0,0-4.08-3.8c-.37-.13-.81-.19-1.14-.28h-.85l-.09-.19a3.21,3.21,0,0,0-1.33.19l-1.33.09a13,13,0,0,0-2.94,1.23l-.47.09a10.61,10.61,0,0,0-1.8,1.23h-.09c.53-1.2,1.55-1.6,1.52-3.42-.35-.33-.5-.71-1-.85l-.09-.28c0-.08.26-.23.28-.28l.09-.76.19-.19.09-1.42a2.1,2.1,0,0,0-.09-1.23l.09-.28c-.33-1.21-2-1.56-3.51-1.52-.08.06-.64.31-.76.38a1.76,1.76,0,0,1-.09.66c.16.37.65.61.85.95.41.68.38,3.48-.09,4-.14.28-.94.48-1.23.66l-.09.19c-.25.15-.52.13-.76.28s-.31.37-.47.47l-.38.09c-.27.19-.34.62-.57.85a3.39,3.39,0,0,0,.19,1.42h.19v.19l.19.09c0,.07.19.36.19.38l-.09.19c.08.24.37.61.47.85.2.47.15,1,.47,1.33-.13.43-.44.55-.66.85v.19l-.66.57V37l-1,.95c-.11.16-.08.32-.19.47s-.65.54-.85.85a1.72,1.72,0,0,0,0,1.61c.12.34.39.39.57.66.54,0,.6,0,1.14,0,.12-.13.22-.08.38-.19l.38-.47h.19c.27-.28.35-.89.57-1.23s.42-.4.57-.66c.28.35.05.88.19,1.42a2.49,2.49,0,0,1,0,.66,7.49,7.49,0,0,0,.76,2.47c.17.26.45.27.66.47a3.29,3.29,0,0,0,1.33-.09c.27-.15.41-.58.66-.76l.09-1-.66-2v-.57a12.28,12.28,0,0,1-.28-3.61,18.16,18.16,0,0,1,2.18-1.9c.21-.14.35-.52.57-.66l.47-.09a8.72,8.72,0,0,1,1.14-.76l.28.09.19-.19.85-.19v-.19l.95-.19.19-.19a1.8,1.8,0,0,1,.95,0c1,.09,2.06,0,2.66.57v.19l.28.09.19.28a3.17,3.17,0,0,1,.76.66l.09.57c.2.49.5.72.38,1.33-.25,1.25.17,2.11-.28,3-.07.14-.38.35-.47.47l-.09.38c-.27.41-.73.68-1,1v.19l-.38.09a1.9,1.9,0,0,0-.19.38h-.28c-.09,0-.21.25-.28.28H116l-.19.28a6.91,6.91,0,0,1-1.14.38c-.17.07-.49.31-.66.38a10.66,10.66,0,0,1-1,.28h-.66c-.28.09-.48.35-.76.47a1.51,1.51,0,0,0,.19.76c3,.62,5.81-.66,7.69-1.9.17-.11.31-.07.47-.19l.19-.28h.19l.76-.85c.12-.12.28-.14.38-.28l-.09-.19A5,5,0,0,0,122.75,35.29Zm-17.66-1.9H105c-.16-.33-.6-1.37-.38-1.71.1-.57.53-.53.85-.85C105.73,31.19,105.15,32.89,105.09,33.39Zm68.08-1.33a6.17,6.17,0,0,0-.38-.95l-.28-.09-.19-.57h-.19v-.19c-.18-.17-.45-.14-.66-.28s-.22-.32-.38-.38h-.47c-.46-.14-2.32-.34-2.75,0h-.47c.07-.09.13,0,.19-.09s-.11-.31,0-.47h.19l.09-.66.19-.19v-.38c.09-.24.4-.62.47-.85l-.09-.28c0-.1.25-.36.28-.47V25.7l.19-.19a2.93,2.93,0,0,0-.19-1.33c-.47-.9-1.41-1.08-2.47-1.42-.2.15-.59,0-.85.09V23c-.2.12-.38,0-.57.19a.72.72,0,0,0-.19.95c.07.41.46.59.85.66a5.3,5.3,0,0,1-.28,2.94l-.09.85a5.73,5.73,0,0,0-.57,1.52c-1.54.32-4.78,1.06-5.7-.28a.88.88,0,0,0-.85.66c-.11.14,0,.25-.09.47-.33,1.13.44,1.64.85,2.28.63,0,.9.48,1.61.28s1.5-.6,2.18-.85c.47-.17.64.05,1-.28h.19a7.41,7.41,0,0,1-1.14,2.18c-.15.25-.13.51-.28.76a14.2,14.2,0,0,1-3.23,4.08c-.29.21-1.34,1.67-.95,2.18,0,.56.18.53.38.85,1.55.51,2-.25,2.94-1.14l.47-.28a56.75,56.75,0,0,0,3-5.51l.09-.57.09-.19h.19l.09-.57h.19a4.81,4.81,0,0,1,.47-1.52c.13-.26.43-.69.28-.95.33-.31,3.12-.83,3.61-.38.76.22,1,2.48.66,3.51a2.79,2.79,0,0,0-.19.47,4.59,4.59,0,0,1-.66,1.8c-.65,1.27-1.3,3.12-2.66,3.51-.36.1-.72-.15-.95-.19l-.38.09c-.65-.17-1.15-.87-1.52-.66a1.05,1.05,0,0,0-.66.19c0,.29-.05.38,0,.47.05.6.41.59.66.95.5.69.85,1.67,1.8,1.9.3.23.76,0,1,0a3.28,3.28,0,0,0,2.18-.66l.57-.66c.2-.15.43-.19.57-.38l.09-.38.28-.19v-.28l.38-.28.28-.85c1.07-1.37,1.27-2.68,1.8-4.65a5.85,5.85,0,0,0-.19-2.56Zm4.65-2.85c-.1.09-.15,0-.28.09s-.17.29-.28.38c.18,1.38,2.78.79,3.23,2.28.18.23.11.73.28.95a1.11,1.11,0,0,1-.09.66c-.43.38-1.25.08-1.8.38-.11.06-.18.29-.28.38a2.16,2.16,0,0,0,.19.66c.53.22,1.37.19,1.9.47.84.45.34,1.16,2,1.14a4.78,4.78,0,0,1,1-.85C184.75,31.1,182.16,29.12,177.82,29.21Zm18.56-3.11h.47c.15.07.32.39.47.47l.47.09.66.57.09.28c.12.1.28.07.38.19l-.09.19.47.38c.33.34.56.87.95,1.14.16.11.26.06.38.19,1.7,0,2.17-1.4,1.42-2.66-.2-.34-.71-.54-1-.76a8.28,8.28,0,0,0-4.75-1.33c-.1.19-.06.2-.28.28A1.2,1.2,0,0,0,196.39,26.1Zm107.11,6.55H304c.16,0,.52.24.66.28a3.37,3.37,0,0,0,3.42-1.8,4.39,4.39,0,0,0,.09-3c-.38-.28-.48-.87-.85-1.14a6.82,6.82,0,0,0-3-.66c-.35.32-1.2.53-1.61.85-.17.13-.06.28-.19.47s-.35.16-.38.19c-.2.22-.15.53-.47.76C301.45,30.43,302,32.09,303.49,32.65Zm.09-3.61c.18-.61.75-.57,1.14-.95l.95.09c.39.16.16.39.66.28.12.45.56,1.31.09,1.8-.1.34-.31.4-.47.66a1.37,1.37,0,0,0-.85.19c-1.15,0-1.19-.56-1.71-1.14A1.35,1.35,0,0,1,303.59,29Zm-45.2.76a11.62,11.62,0,0,0-2.56-2h-.76c-.81.72-4.74,1-6.74,1h-2.56l-.19-.19c-.77.15-1.74-.68-2.28-.47-1.4.52.37,2.77.95,3a4.32,4.32,0,0,0,2.09,0c1.54-.45,3.53-.35,5.13-.76.59-.15,1.55.14,2-.19a3.76,3.76,0,0,1,1.14.09,15.26,15.26,0,0,1-.38,3.42v.85c-.14.52-.23,1.27-.38,1.71s0,.92-.09,1.23c-.74.14-1.91-.12-2.75.09a18.86,18.86,0,0,1-4.46.19c-1.07,0-2.59.17-3.13-.38a1.62,1.62,0,0,0-1.23.38v.85c.13.36.33.36.28.76.47.25.78.78,1.33.95a3.59,3.59,0,0,0,1.71-.19l.57.09c.53-.1,1.26-.33,1.71-.47l.85.09a2.52,2.52,0,0,1,.95-.09c.07,0,.35.17.57.09l.09-.19h1a5.39,5.39,0,0,0,1.42,0l2.94.09c.11,0,.29.22.47.19a4.61,4.61,0,0,0,1.33-.66c.06-.18,0-.08.09-.19,0-1.33-.58-1.06-1.23-1.61-.18-.27.26-1.44.38-1.8l.19-1.14c.51-1.58.79-2.62,1.9-3.61v-.66h-.19Zm-46.72-1.9a7.9,7.9,0,0,1-.76.85c-.06.08-.23.52-.28.57s-.32.1-.38.19l-.09.38-.28.19c-.15.22-.13.45-.28.66l-.57.47v.19c-.1.13-.25.09-.38.19-.35.27-.66.85-1,1.14h-.19l-.47.66h-.19l-.57.66H206l-.47.57-.38.09c-.19.13-.36.45-.57.57h-.28c-.26.16-.34.58-.57.76s-.32.08-.47.19-.51.48-.76.66a1,1,0,0,0-.57.09l-.09.28h-.19v.19c-.18.17-.45.14-.66.28l-.28.38-1.14.38a7,7,0,0,1-.66.38,5,5,0,0,1-2.09-.19l-.66.09v.09H196l-.09.76c.18.16.16.31.28.47a3.37,3.37,0,0,0,.47.47H197l.19.38.28.09v.19l.19-.09c.16.09.32.39.47.47h.28l.09.19c.24.1.5,0,.66.09a13.3,13.3,0,0,1,1-.85l.85-.28.28-.38.38-.09c.32-.2.64-.54.95-.76h.19v-.19l.57-.19s.11-.32.19-.38.41-.09.57-.19.44-.5.66-.66a16.09,16.09,0,0,0,3.42-3.13c.26-.35.78-.53,1-.85.12-.15.08-.32.19-.47l.28-.19V33l.76-.66c.12-.16.08-.31.19-.47s.38-.31.47-.47v-.28c0-.09.24-.21.28-.28l.09-.38.28-.09L212,30a5.76,5.76,0,0,1,.66-1.14,1.15,1.15,0,0,0-.28-.85A2.79,2.79,0,0,0,211.67,27.9Zm22.79,1.8v-.28c-.12-.2-.38-.24-.57-.38l-.47-.57h-.28c-.09,0-.21-.24-.28-.28-.23-.14-.56-.12-.76-.28a19,19,0,0,0-2.28.85h-1.23a18.33,18.33,0,0,0-2.75.19h-3.7c-.25-.08-.62-.37-.85-.47a10.19,10.19,0,0,0-1.42-.38c-.44-.1-.67.15-1,.19a.86.86,0,0,1-.19.28c.07.73.7,1.14.95,1.8l.19,1.23a.16.16,0,0,0-.09.19c.08.38.37.9.47,1.23l-.09.57c.16.85.25,2,.47,2.85.28,1.06-.11,3,.47,3.7.17.28.83.77,1.14.57.89,0,.63-.51,1.14-.76v-.38l2.66.09c.69-.17,1.76.08,2.56-.09a.37.37,0,0,1,.28-.09,10.92,10.92,0,0,0,4.94-.19.58.58,0,0,1,.19-.38c0-1.05-.38-1.29-1.14-1.52l.47-2.28h.19v-.38l.19-.28-.09-.28.19-.28c.2-.64.08-1.37.38-1.9.13-.23.45-.31.66-.47s.22-.42.38-.57v-.66C235,30.08,234.58,29.9,234.46,29.7ZM230.95,34c-.15,1-.42,2.37-.47,3.51-.84.08-1.78.1-2.85.09l-1.23-.09a14.66,14.66,0,0,1-3.42.19,13.11,13.11,0,0,0-.47-3.13l.09-1.33a13.47,13.47,0,0,1-.19-2.37c2.68-.16,5.57-.39,8.64-.38a11.65,11.65,0,0,1-.19,2.94Zm77.2,3.32c-.33-.71-2.88-1.64-3.7-2.09-.14-.08-.26-.31-.38-.38h-.28a4.66,4.66,0,0,1-.85-.47v-.19h-.19l-.09-.19h-.38v-.19H302c-.1-.05-.2-.22-.28-.28h-.19v-.19l-.66-.47-.47-.09-.19-.28h-.28c-.2-.1-.31-.36-.47-.47s-.32-.08-.47-.19l-.76-.85h-.28l-.19-.28h-.19c-.71-.5-1.64-1.47-2.75-1.52-.24.2-.51.06-.85.19a6.21,6.21,0,0,0-.85.57l-.38.09c-1.5,1-2.58,1.92-4.18,2.75-.24.13-1.25.59-1.61.47l-.19-.19c-.29-.09-.57.06-.76-.09a.82.82,0,0,0-.28.47c-.55.74.7,2.33,1.23,2.66l.85.28c1.06,0,1.15-.58,1.71-1,.27.11,1.05-.7,1.33-.95l.28-.09c.34-.25.63-.67.95-.95l.19.09c.19-.18.26-.51.47-.66h.19l.19-.28.38-.09.28-.47c.29-.22.53-.16.76-.47,1.38.06,2.16,1.46,3,2.09,1,.74,1.92,1.53,2.94,2.28l.57.66.38.09c.33.23.72.69,1,.95h.19v.19a7,7,0,0,0,.57.47c.27.19.66.22.95.38l.09.19h.19l.28.38H305c.11.06.27.31.38.38.31.19.69.14.85.47a3,3,0,0,0,1.9-.47C308.9,38.65,308.54,38,308.15,37.3ZM197.81,34.55a5,5,0,0,0,.19-1.71c-.33-.31-.44-.82-.76-1.14-.08-.08-.61-.24-.66-.28l-.09-.28L196.1,31l-.09-.19-.19.09-.19-.19h-.28c-.07,0-.2-.25-.28-.28h-.38A4.55,4.55,0,0,0,192.3,30a4.11,4.11,0,0,1-.66.19v.09h-.09v.57a4.69,4.69,0,0,1,2.37,1.61l.57.38v.28c.31.53,1.35,1.75,2,1.9S197.45,34.66,197.81,34.55Zm81.75-3.61c-.19-.11-.22-.3-.47-.38a5.37,5.37,0,0,0-1.52-.28c-.1.09-.15,0-.28.09s-.17.29-.28.38c.08.64.43.73.57,1.14s-.59,2-.76,2.28c.14.62-1.12,2-1.52,2.47v.19c-.05.05-.41.14-.47.19s0,.23-.09.38a16,16,0,0,1-1.14,1.23h-.28l-.47.66h-.19l-.19.28c-.14.1-.43.18-.57.28l-.19.28h-.19v.19l-.38.09-.19.28-.19-.09s-.65.54-.66.57,0,.19-.09.28c.08.26.17.28.28.47.58,0,.59-.23.95-.28.12,0,.16.16.38.09a9.59,9.59,0,0,0,2.75-1.52,12.23,12.23,0,0,0,2.94-2.66c.19-.26.58-.48.76-.76l.09-.47.47-.38c.16-.24.13-.51.28-.76l.19-.09c.18-.29.17-.68.38-.95h.19l.19-.38.09-.57c.13-.3.45-.46.57-.76s-.14-1.14-.38-1.33S279.73,31,279.57,30.94ZM270,33.88c0,.09.24.29.28.38v.28l.28.19V35a1.23,1.23,0,0,0,1.42.19c.34-.11.32-.3.57-.47a2.82,2.82,0,0,0,0-1.33c-.41-1.09-2.18-2.77-3.7-2.75a1.49,1.49,0,0,1-.28.38c0,.9.69,1.15,1,1.71l.19.76H270ZM267,33.5h-.28l-.19-.38a5,5,0,0,0-2.18-.95,1.42,1.42,0,0,1-.38.28,1.58,1.58,0,0,0,.19.85l.28.19v.28l.19.09c.14.23.13.45.28.66l.28.19.19.57c.23.4.53.89.76,1.33a3.37,3.37,0,0,0,1.23.19l.66-.57c.08-.13,0-.19.09-.28A2.66,2.66,0,0,0,267,33.5Z"/><path class="cls-1" d="M101.15,7.23A.48.48,0,0,1,101,7a.62.62,0,0,1-.29-.17V6.76h-.12l-.06-.12h-.06l-.06-.12-.23-.06V6.41c-.35-.15-.79,0-1,.06v.12a2.09,2.09,0,0,0-.58.17c-.14,0-.22-.06-.29-.06v.06h-.47a1.48,1.48,0,0,1-.47.12,2.27,2.27,0,0,1,.17-.47h.06l.17-.23h.12c0-.12,0-.05.06-.12V5.77H97.9V5.66h-.06V5.54h-.06c-.05-.08,0-.1-.06-.23s-.13,0-.17-.17S97.41,5,97.2,5V4.9H97V4.84a2.5,2.5,0,0,0-.76.06c0,.12,0,.05-.06.12,0,.38.06.51.29.64A2.27,2.27,0,0,1,96,6.94v.12l-.23.17v.12l-.12.06v.12l-.35.29V8l-.17.12v.12l-.29.23L94.35,9h-.12l-.12.17h-.06v.12l-.35.29c0,.16.08.13.12.29s0,0,.12.06a1,1,0,0,0,.58-.12l.12-.17h.17l.06-.12H95l.23-.29h.12L95.51,9h.12l.06-.12.23-.17L96,8.51l.17-.12V8.33h.12l.12-.17.12-.06V8l.17-.06a1,1,0,0,0,.23-.41c.13,0,.15,0,.23.06v.06h.12v.06a1.33,1.33,0,0,0,.64-.06h.47a9,9,0,0,1,1.1-.35l-.06.58h-.06V8h-.06l.06.06-.12.35h-.06v.12l-.12.06L99,8.8l-.12.06V9h-.06v.12l-.12.06c-.08.14,0,.16-.12.29v.06l-.06-.06h-.17V9.38h-.23V9.32h-.29c-.26-.08-.8-.31-1-.06l-.17.06v.17l.58.29h.12l.12.17h.12c.14.08.2.19.41.23a2.34,2.34,0,0,1-.47.76l-.23.17v.17l-.41.35-.06.12-.23.06-.23.29-.23.06-.29.35h-.12l-.06.12h-.12l-.06.12a1.11,1.11,0,0,1-.41.17V13l-.52.17v.12l-.52.17c0,.12,0,.05-.06.12s.05.17.12.29c.4,0,.58-.1.93-.12v-.12l.87-.29v-.06l.23-.06v-.06h.23l.06-.12h.12V13h.12l.06-.12h.17v-.06c.07-.07,0,0,.06-.12a1.4,1.4,0,0,0,.58-.41l.06-.12h.12l.52-.58a1.44,1.44,0,0,0,.58-.58H99c.08,0,0,.15.06.23l.29.17v.12l.47.41v.12c.16,0,.61.14.76,0h.12c.1-.06.21-.58.23-.76s-.06-.1-.12-.17h-.06v-.12l-.23-.17v-.06h-.12l-.23-.29H100l-.17-.23h-.12l-.17-.23h-.06V10h.06l.06-.17h.06V9.73l.12-.06.06-.17.17-.12V9.26l.12-.06V9.09h.06V9h.06l.06-.29.12-.06s0,.12.06.06l.17-.52c.06-.11.27-.16.35-.29h.12c0-.14,0-.11.12-.17a1,1,0,0,0-.06-.47Zm10.31-1-.13-.15c-.1-.05-.13,0-.24-.08H111V6c.12,0,0,0,.12,0a.72.72,0,0,0,.43-.17.84.84,0,0,0-.23-.48l-.12,0V5.23L111,5.14,111,5h-.11V4.88l-.22,0V5l-.17,0c-.06.19-.19.28-.22.48h-.34V5.46l-.39.05V5.46c-.21,0-.36.06-.51,0-.24,0-.18.06-.32.16l0,.22h.06l0,.17h.06V6l0,.06c.19,0,.48-.08.73,0v.06l.39-.05v.06l.33,0,.22,0v.06l.49-.12v.11h-.11v.11a.47.47,0,0,0-.29.38l-1.4.07a3.32,3.32,0,0,0-1,0c0,.34,0,.31.14.6l.29,0v.06l.9-.06v.06l.49-.12v.06l.61-.08s0,0,.12,0,.87,0,1-.13l.16-.08C111.89,6.53,111.7,6.44,111.47,6.27Zm-6.63-1.2c-.08-.32-.38-.38-.64-.52V4.49h-.12L104,4.37h-.17V4.31a1.13,1.13,0,0,0-.58,0,1.11,1.11,0,0,0-.41.06,1.39,1.39,0,0,0,.12.46l.17.06V5l.35.12.52.58c.09.08.2.07.29.17l.35-.06V5.71l.17-.12a.82.82,0,0,0,.06-.52Zm12.53.52-.28,0-.38.56a.71.71,0,0,1-.29,0l-.05-.39a1.64,1.64,0,0,0,.31-.21,1.15,1.15,0,0,1,.07-.29.42.42,0,0,1-.13-.15,2.43,2.43,0,0,0-1-.14v.11h-.11l0,.17h-.06l.1.78h-.06v.11c-.13,0-.62.09-.73,0V6.16h-.06c0-.1,0-.08,0-.12s-.05-.27,0-.34h.11V5.64l.15-.13c-.07-.37-.18-.3-.45-.39V5.06l-.17,0V5l-.16.08V5c-.21,0-.43,0-.49.18l.11.83s0,0,0,.12c-.39,0-1.18-.14-1.4.13,0,.08.07.26.11.44a3.27,3.27,0,0,0,1.3,0c0,.16-.06.6.1.72l.08.16c.06,0,.31.07.4,0V7.57a.71.71,0,0,0,.27-.09,3.51,3.51,0,0,0,.13-.75l.73,0c0,.18-.06.59.1.72l.08.16.5-.07V7.44h.11s0-.09.1-.13a2.39,2.39,0,0,0,0-.68l.57,0v.06l.56-.07V6.7a.78.78,0,0,0,.49-.12l.16-.08C118.14,5.88,117.69,5.88,117.37,5.59ZM90,10.47a2.07,2.07,0,0,0-.9-1.07c-.06-.32-.17-.17-.38-.33l0-.12-.17,0V8.88h-.06l.07-.17h.12l.29-.62H89V8h.06V7.88h.06l0-.23h.06V7.54h.06V7.43h.06a1.46,1.46,0,0,0,.23-.62h.12a.91.91,0,0,1,.39-.43l0-.41h-.06c0-.23-.11-.19-.26-.31l0-.12-.28-.08V5.4h-.12V5.33l-.92-.14V5.14h-.06c-.06,0,0,0-.12,0s0,.05-.07.11c0,.22,0,.29.08.42l.11.07,0,.29h.06a1.16,1.16,0,0,1-.16.51l0,.23h-.06l-.09.34h-.06v.12H88l0,.17a3.89,3.89,0,0,0-.48.78l-.67-.29,0-.12-.23-.08V7.66l-.35,0V7.57h-.12V7.5l-.17,0V7.43l-.57-.17V7.2a1.56,1.56,0,0,0-.53,0l0,.29a2.27,2.27,0,0,1,.5.34h.12l.1.18h.12c.15.11.2.22.44.27v.12c.23.08.34.27.55.34,0,.16,0,.13.16.19l-.09.34-.18,0c-.06.18-.13.19-.16.45l-.18,0c-.07.21-.22.28-.33.44h-.12l-.07.17h-.06l0,.17-.18.1-.07.17-.25.15,0,.17-.12,0a1.17,1.17,0,0,0-.39.43h-.12l-.07.17-.31.21-.07.11-.17,0-.45.43-.17,0-.19.22H83v.12a.53.53,0,0,0-.37.26h-.06v.06h.06c0,.19,0,.17.09.3a1.62,1.62,0,0,0,.84-.22l.07-.11.24,0L83.9,13H84l.07-.11c.21-.11.34,0,.44-.31a1.73,1.73,0,0,0,.61-.3l.07-.17h.12l.13-.11v-.12l.31-.21.07-.11.18,0,.26-.27.12,0v-.12l.44-.31v-.12l.18-.1V10.5l.12,0a.79.79,0,0,0,.27-.39c.3-.06.17-.19.31-.26h.12v.06l.17,0,.15.3.17.07.1.18.38.38v.12c.08.13.25.18.32.32a1.64,1.64,0,0,0,.89-.16l.08-.28h.06l0-.35Zm13.87-3.82h-.06l-.12-.35c-.16,0-.13-.08-.29-.12L103.36,6,103,5.89V5.83l-.17.06V5.83a1.93,1.93,0,0,0-.93.12c0,.39.22.35.47.52l.29.35h.12v.06L103,7v.17l.17.06.12.17h.23V7.35l.12.06V7.35l.17-.06.06-.29h.06l-.06-.23A.09.09,0,0,0,103.89,6.65Zm18.57.79v0l-.19.1,0,.36-.09.08.06.25s-.06,0,0,.11.07,0,.08.09h0l0,.15h0l.1.19h0v.64h0l.09.14a.52.52,0,0,0,.39-.15c.22-.12.12-.19.16-.41h0l0-.1h0L123,8.66a2,2,0,0,0,.06-.39l.61-.11c.09.64-.15,1.34.13,1.93l.1,0,.08.09.53-.19a1.5,1.5,0,0,0,.08-.71c.07,0,0,0,.06,0a1,1,0,0,1,.43.42c.25-.12.72-.24.84-.43a.68.68,0,0,0,.12-.56c0-.06,0,0-.06,0h0l0-.1h0l0-.15h0l0-.11c.06-.08.12,0,.17-.15s0,0,0-.11h0l0-.15-.11,0,0-.1-.18-.06,0-.1s-.08,0-.13-.07l-.31,0v0l-.29.13v0l-.41.05v0h0v0l-.15,0,0-.06-.06-.25h0v0h0c.12.08.26,0,.42,0v0l.31,0,.08.09.2-.05v0l.62-.06v0h0v0a.52.52,0,0,0,.37-.2l.09-.08c-.14-.37-.44-.46-.66-.68h0a.69.69,0,0,1,.16-.2c-.16-.6-.51-.55-.81-.85a.6.6,0,0,0-.41.27l0,.11-.1,0v0l-.35.09,0-.31a.55.55,0,0,0,.35-.3c0-.07,0,0,0-.11h0l0-.1-.11,0v0l-.15,0L124.49,5l-.1,0L124.31,5c-.16,0-.15.09-.32,0l-.25.06v0h0l0,.36-.1,0c-.11-.2-.25-.19-.44-.26l-.08-.09c-.19-.05-.1.12-.24-.1l-.3.08,0,.1-.1,0-.13.51-.1,0v.16h0v.16l-.09.08,0,.1-.09.08.05.2-.09.08c0,.12,0,.06-.06.18v0a.43.43,0,0,1-.18-.06.65.65,0,0,0-.24.11,3.12,3.12,0,0,0,.19.53A2.9,2.9,0,0,0,122.45,7.44Zm2.14.88,0-.1c.14,0,.26,0,.42,0v0h0v0h.21a1.08,1.08,0,0,1,0,.64v0a2.23,2.23,0,0,0-.69,0A1.45,1.45,0,0,1,124.6,8.31Zm.21-1.86v0l.2-.05v0l.2-.05v0l.36,0v0c.11,0,0,0,.11,0a.87.87,0,0,0-.27.39l-.51.08v0l-.2.05V7a.38.38,0,0,0-.21,0l0-.47Zm-1.18-.65V5.64h0l.06.25h0l.08.09-.57,0V6A1.33,1.33,0,0,1,123.62,5.8Zm-.82.74.93-.08c.05.2.08.31,0,.42l0,.1c-.09,0-.16,0-.26,0V7l-.2.05V7h-.21v0l-.36,0v0l-.1,0v0A.75.75,0,0,0,122.81,6.55Zm.92.88,0,.26a1.32,1.32,0,0,1-1.11-.19l-.1,0v0C123,7.39,123.31,7.5,123.73,7.42Zm-12.47-.17c-.14,0-.11,0-.18-.09l-.28,0-.14.24h-.11l-.14.24a2.31,2.31,0,0,1-.79,0V7.65l-.22,0V7.62l-.27.09V7.66l-.56.07.13.55.17,0v.06l.55-.13V8.3l.17,0v.06l.61-.08V8.3c.21,0,.36-.13.49-.12v.06l.22,0v.06l.33,0v.06a1,1,0,0,0,.49-.12c0-.12,0,0,0-.12C111.71,7.61,111.39,7.57,111.26,7.26Zm6.63,5.62-.12,0v-.11l-.12,0v-.11l-.43-.28a.78.78,0,0,0-.6.59,4.77,4.77,0,0,1-.74,0,1.08,1.08,0,0,1-.4,0,3.39,3.39,0,0,1,0-.62l.67,0,.07.1.39-.05v.06h.06v-.06a1,1,0,0,0,.6-.19l0-.33c-.1-.06-.17-.17-.26-.25l-.18-.09v-.11h-.06l-.13-.15h-.11v-.06a1.32,1.32,0,0,0-.53.3v.11h-.06l0,.17h-.34l0-.33h.06l0-.33a4.67,4.67,0,0,0,1.46-.08V11a1,1,0,0,0,.6-.19l0-.33-.11,0c-.08-.21-.2-.22-.28-.41-.14,0-.11,0-.18-.09h-.06c.09-.14.2-.11.3-.27h.06V9.63h.06l0-.29h.06l-.1-.78.36-.27,0-.28-.12,0V7.85l-.12,0-.32-.3-.17,0V7.43a1.38,1.38,0,0,0-.53.24v.06l-.29,0-.83.11V7.76l-.5.07V7.77h-.11V7.73l-.49.12V7.8l-.44.06V7.8l-.17,0-.07-.1-.54-.21a.55.55,0,0,1-.19.25l0,.67h.06l0,.33h-.06l0,.28h-.06l0,.22h-.06l0,.28h-.06a.78.78,0,0,0,.12.49c.09.23.34.25.65.2a.62.62,0,0,1,.13-.3h.06l0-.17.84-.06.05.39h-.06l.05.39c-.16,0-.41.06-.62,0v-.06l-.33,0v-.06l-.22,0v-.06l-.22,0v-.06l-.22,0v-.06c-.23,0-.29,0-.31.21h-.06c0,.11,0,.07.07.1,0,.25.11.23.22.37a1.08,1.08,0,0,0,.51,0V11l.22,0V11l.28,0v.06l.28,0v.06l.44-.06a1.24,1.24,0,0,0,0,.63h-.06v.06l-1.13,0v-.11h-.34a.42.42,0,0,1-.15.13l.12.49a.54.54,0,0,1,.24.08v.06l.61-.08v.06l.73,0,0,.62H114v-.06l-.56,0v.06l-.22,0v-.06c-.29,0-.47.13-.68,0a.88.88,0,0,0-.33.1,1.48,1.48,0,0,0,.19.54l1.65.06a.15.15,0,0,0,.16-.08l.67-.09v.06l.17,0v.06l.5-.07v.06l.44-.06v.06l1.18,0v.06l.56-.07v-.06l.2-.2Zm-3.51-4.22a1.51,1.51,0,0,1,0,.51l-.44.06V9.16a1.07,1.07,0,0,1-.4,0l0-.79.56,0v.11l.33,0,0,.22Zm1,.1h-.06l-.05-.39,1.07,0a3.71,3.71,0,0,1-.06.8h-.9l0-.33h.06Zm0,1.59h.06c-.05-.29-.14-.48.09-.58s.62,0,.84-.06l.08.16c.12,0,0,0,.12,0h.06v.06l-.16.08,0,.12c-.14.16-.16.06-.24.31l-.79,0Zm11.81-2.58h0l0,.15h0l.05.2h0a.14.14,0,0,0,.09.14v.16a.21.21,0,0,1,.13.07,1.17,1.17,0,0,0,.5-.13v0h.16a1,1,0,0,1,.11-.19L128,7.81h0l-.05-.2.09-.08-.05-.2h0L128,7.06h0l-.09-.35a1.84,1.84,0,0,0-.06-.84l.27-.18v0h0l0-.15.1,0,0-.15h0c-.15-.27-.3-.16-.54-.23l-.08-.09-.15,0v0l-.25.06a1.8,1.8,0,0,0-.1.45l.06.25h0l.05.2h0l.06.25h0l.05.2h0l.05.2h0l.05.2h0l0,.15h0l.05.41-.09.08Zm-15.9.75h-.11V8.46H111V8.42a.78.78,0,0,0-.6.59c-.37-.08-1.27.09-1.49-.14a1.16,1.16,0,0,0-.44.11,2.64,2.64,0,0,0,.26.64l.29,0s0-.07.1-.07v.06l.39-.05.5-.07,1.13,0V9.48c.2-.07.49,0,.6-.14S111.4,8.58,111.26,8.5Zm17,.09c-.28.11-.12.15-.23.33.06.12,0,.07.14.12v0l.1,0v0h0c.13.09,0,.11.19.11l.09.14h0c.13.14-.06.07.15.17v0l.1,0v0a1.44,1.44,0,0,0,.86-.38c.1-.11,0-.06.06-.18l.12-.14-.06-.62h0l-.05-.2h0l-.06-.25h0l-.05-.2h0a.15.15,0,0,0-.09-.14c0-.08,0-.09,0-.11l-.06-.25h0l0-.36h0l-.05-.2.09-.08,0-.15h0l0-.1h0l-.07-.46.31-.24c-.06-.25-.09-.35-.3-.35l0-.1h-.16v0l-.1,0v0A.76.76,0,0,0,129,5c0,.11,0,.33,0,.42l.08.3h0l0,.36h0l0,.1h0l.12.45s-.06,0,0,.11l.06,0a1.6,1.6,0,0,0,0,.64l-.1,0c.08.44-.05.77,0,1.21a2.21,2.21,0,0,1-.7,0v0l-.15,0Zm-16.6,1.79-.12,0-.08-.16-.17,0-.2-.2a1,1,0,0,0-.44.11l0,.12h-.11v.06l-.28,0v.06c-.09,0-.1,0-.12,0l-.56.07v-.06h-.11v-.06l-.17,0v-.11c-.14,0-.11,0-.18-.09a.88.88,0,0,0-.33.1v.11h-.06l.08.61-.1.07,0,.33h.06l0,.56h-.06l.05.39a1.62,1.62,0,0,0,0,1h.06l.1.33c.12,0,0,0,.12,0,.39,0,.59-.11.62-.42h.11v-.51a2.75,2.75,0,0,0,.85,0l0,.17h-.06l.11.38a.43.43,0,0,1,.18.09l.44-.06,0-.12.2-.2v-.45a4.55,4.55,0,0,0,0-1.41,1,1,0,0,0,.31-.21C111.77,10.61,111.75,10.49,111.62,10.38Zm-2,1.79-.06-.84h.06a1,1,0,0,0,0-.4l.79,0,.11,1.23ZM77.77,6.62l-.37-.1,0,.06h-.26L77,6.69l-.18,0-.17.15h-.26l0,.06-.45-.05,0,.06-.32,0,0,.06-.12,0,0,.06L75,6.87l0,.06h-.26l0,.06-.45-.05-1,.06L73,6.93,73,7l-.18,0,0,.06-.31-.08,0,.06-.37-.1,0,.06-.31-.08,0-.06A1.38,1.38,0,0,0,71,6.67h-.2a2.93,2.93,0,0,0-.09.57l.23.13c0,.35.24.45.48.66l0,.06.25.07,0,.06c.67.15.94-.22,1.5-.19l0-.12a4.23,4.23,0,0,0,.68-.08l.18,0,0-.06.12,0,0-.06.12,0,0-.06.17.11,0-.06.12,0,0-.06.59,0,0-.06.12,0,0-.06.65,0,0-.06,1,.06a5.25,5.25,0,0,0,0,.91l-.1.37.06,0c0,.1-.09.09-.09.11l-.09.57.06,0,0,.12.06,0c0,.29-.22.67-.11.89l-.16.62-.06,0c-.26.2-.19,0-.48.07l0,.06-.12,0,0,.06-.39,0,0,.06-.31-.08,0,.06-.18,0,0,.06-.18,0,0,.06-.18,0,0,.06-.25-.07,0,.06-.18,0,0,.06-.23-.13,0,.06-.18,0,0,.06-.12,0,0,.06-.65,0,0,.06h-.26l0,.06-.25-.07,0,.06-1.45-.26,0,.06-.06,0-.07.25-.06,0c.05.09,0,0,.11.09l0,.18.06,0,0,.12.06,0,0,.14.12,0,.12.3.41.18c.06,0,0,.15.15.17l0-.06.51.07,0-.06.4,0,0-.12.59,0,.09-.11.18,0,0-.06.12,0,0-.06.39,0,0-.06h.26l0-.06.18,0,0-.06.18,0,0-.06.31.08,0-.06.25.07,0-.06.45.05,0-.06.18,0,0-.06.51.07,0-.06.51.07,0-.06.12,0,0-.06.18,0,0-.06.77.07a.53.53,0,0,1,.27-.26.92.92,0,0,0,0-.46,1.9,1.9,0,0,0-.57-.35l.08-.31-.11-.09.23-.6c.17-.62.42-1.47.51-1.91l.06,0,.13-.23.14,0,0-.12.06,0,.13-.49L77.91,6.6C77.81,6.55,77.79,6.63,77.77,6.62Zm52,4.32c.16-.09.08-.09.16-.2-.07-.3-.2-.47-.44-.47a.52.52,0,0,0-.44-.26c-.2-.07-.4.33-.52.45v0h0c-.1-.07-.46,0-.64,0h-.16v0l-.1,0v0l-.4.1v0c-.13,0-.12.09-.19.1v0l-.46.07c0-.19.06-.13,0-.37a.5.5,0,0,0,.35-.3c0-.07,0,0,0-.11s-.09-.1-.14-.12l-.1,0-.08-.09-.1,0-.08-.09-.1,0v0c-.12,0-.11,0-.23,0a.78.78,0,0,0-.42.22l.1.77-.62.06,0-.1a7.52,7.52,0,0,1-2.06.06l-.72.08-.08-.09-.14.09v0l-.15,0a1,1,0,0,0-.59,0c0,.23-.08.38.13.5s.2,0,.42,0l.08.09.25-.06v0l.15,0,.08.09.91-.18v0l.2-.05v0l.2-.05v0a.37.37,0,0,0,.21,0,1.48,1.48,0,0,1-.46.28l0,.1-2.06.86c0,.07,0,0,0,.06l.13.29a3,3,0,0,0,1.17-.2v0l.55-.14a2.13,2.13,0,0,1,.52-.24,1.57,1.57,0,0,1,0,.54v0l-.77.1v0l-.25.06v0c-.21.07-.16.07-.27.18a1.93,1.93,0,0,0,.5.88l.25-.06v0l.1,0s0-.12.12-.14v0l.2-.05v0l.5-.13v0l.55-.14.08.09.75-.19v0l.6-.16v0l.31-.24-.05-.2-.1,0-.08-.09-.19.1v0l-.25.06v0l-.3.08v0l-.25.06c-.23,0-.12-.07-.36,0v0h0l0-.57.09-.08,0-.36h0c.07-.14.09-.07.22-.16v0l.15,0v0a1.06,1.06,0,0,1,.58-.21c.14.28.36.4.49.67l.1,0c.07,0,0,.06,0,.06l.09.14.11,0,0,.1.18.06.18.27.18.06,0,.1.18.06,0,.1.3.13,0,.1.68.35.26.2.1,0,.14.12a1.55,1.55,0,0,0,1-.31l.12-.14c-.12-.31-.27-.21-.5-.29l-.14-.12-.1,0-.14-.12-.1,0-.14-.12-.15,0v0l-.36-.17,0-.15a1.34,1.34,0,0,0,.47-.23l.2-.05v0l.32,0a3.42,3.42,0,0,0,.25-.28.53.53,0,0,0-.19-.32l-.11,0c-.09-.08,0-.08-.14-.12v0C129.23,11,129.71,11.08,129.8,10.94Zm-2.2.95a.48.48,0,0,0-.38-.22,1.91,1.91,0,0,0-.62-.53v0l1.95-.08v0Z"/></g></g></svg>